PathFileType	4	(X/Y/Z)	flex.trc
DataRate	CameraRate	NumFrames	NumMarkers	Units	OrigDataRate	OrigDataStartFrame	OrigNumFrames
100.0	100.0	5	17	mm	100.0	339	1352
Frame#	Time	STER			XIPH			T10			T1			CLAV_AC			SCAP_AA			SCAP_CP			SCAP_TS			SCAP_IA			DELT			ARMl			EPICm			EPICl			LARM_elb			STYLr			STYLu			CLAV_SC		
		X1	Y1	Z1	X2	Y2	Z2	X3	Y3	Z3	X4	Y4	Z4	X5	Y5	Z5	X6	Y6	Z6	X7	Y7	Z7	X8	Y8	Z8	X9	Y9	Z9	X10	Y10	Z10	X11	Y11	Z11	X12	Y12	Z12	X13	Y13	Z13	X14	Y14	Z14	X15	Y15	Z15	X16	Y16	Z16	X17	Y17	Z17

339	3.38	390.03302001953125	63.88947296142578	1432.2249755859375	nan	nan	nan	400.0742492675781	-116.06647491455078	1239.9476318359375	397.35498046875	-94.16410827636719	1471.8729248046875	574.7586059570312	32.963417053222656	1455.1435546875	600.0802001953125	-2.1858160495758057	1436.4925537109375	546.0169677734375	-34.54966735839844	1462.3140869140625	546.0842895507812	-92.66986083984375	1416.1099853515625	519.9664306640625	-119.94174194335938	1282.2537841796875	646.7872924804688	102.21622467041016	1333.0447998046875	664.427978515625	127.2151870727539	1293.9432373046875	621.51416015625	222.35372924804688	1161.1986083984375	707.9322509765625	220.29986572265625	1223.7828369140625	669.6195068359375	219.27059936523438	1149.7384033203125	669.9730834960938	500.4345703125	1196.5972900390625	668.0066528320312	473.13421630859375	1119.618408203125	424.5844421386719	61.18111038208008	1437.189697265625
340	3.39	389.99176025390625	63.97939682006836	1432.1378173828125	nan	nan	nan	399.9716796875	-116.2090835571289	1240.07763671875	397.0522155761719	-93.97892761230469	1472.0462646484375	574.8442993164062	33.092411041259766	1454.8236083984375	599.934814453125	-2.3649675846099854	1436.2431640625	545.8510131835938	-34.42315673828125	1462.447265625	545.6919555664062	-92.71049499511719	1416.111328125	519.7910766601562	-120.18444061279297	1282.297119140625	647.1954956054688	100.51850891113281	1331.443359375	664.76953125	124.74604034423828	1291.544189453125	622.5213012695312	217.027099609375	1156.8953857421875	708.6299438476562	216.0024871826172	1219.4656982421875	670.3764038085938	213.6214141845703	1145.4239501953125	671.4166259765625	495.6161193847656	1186.9542236328125	669.4861450195312	466.92236328125	1110.5618896484375	424.388427734375	61.25541305541992	1437.074462890625
341	3.4	389.78375244140625	64.10499572753906	1432.0181884765625	nan	nan	nan	399.8734436035156	-116.35479736328125	1240.2119140625	396.6330871582031	-93.75508117675781	1472.2352294921875	574.9457397460938	33.221858978271484	1454.4818115234375	599.8010864257812	-2.5086557865142822	1436.0731201171875	545.6305541992188	-34.29152297973633	1462.5499267578125	545.303955078125	-92.7340316772461	1416.1661376953125	519.64404296875	-120.3831787109375	1282.414794921875	647.3316650390625	98.8214111328125	1329.583984375	665.098388671875	122.23688507080078	1289.2325439453125	623.3909912109375	211.70591735839844	1152.7122802734375	709.3414916992188	211.66770935058594	1215.24658203125	671.151611328125	207.90289306640625	1141.2454833984375	672.8681640625	490.6163330078125	1177.3355712890625	671.3845825195312	460.31378173828125	1101.263916015625	424.3731384277344	61.40510559082031	1436.9063720703125
342	3.41	389.7023620605469	64.28035736083984	1431.9276123046875	nan	nan	nan	399.7709045410156	-116.4611587524414	1240.3414306640625	396.318359375	-93.48758697509766	1472.443115234375	575.1122436523438	33.37444305419922	1454.0799560546875	599.6480102539062	-2.6844773292541504	1435.8505859375	545.2947998046875	-34.14401626586914	1462.6669921875	544.90234375	-92.78360748291016	1416.3470458984375	519.1354370117188	-120.65888214111328	1282.472412109375	647.3165283203125	97.12467193603516	1327.681396484375	665.4191284179688	119.6767578125	1286.9521484375	623.4330444335938	206.86175537109375	1148.55810546875	710.047119140625	207.26271057128906	1211.1043701171875	671.8558349609375	202.1542510986328	1137.2030029296875	674.5321655273438	485.5008850097656	1167.81494140625	672.9017944335938	453.7508544921875	1092.3648681640625	424.6395263671875	61.53199005126953	1437.1083984375
343	3.42	389.64556884765625	64.47791290283203	1431.7794189453125	nan	nan	nan	399.6439208984375	-116.58194732666016	1240.4925537109375	396.0260925292969	-93.21321105957031	1472.6510009765625	575.2066650390625	33.57297897338867	1453.6036376953125	599.4969482421875	-2.806901693344116	1435.52880859375	545.1043701171875	-33.98436737060547	1462.7569580078125	544.4323120117188	-92.81307983398438	1416.5557861328125	518.886962890625	-120.93134307861328	1282.5889892578125	647.8470458984375	95.38773345947266	1326.032958984375	665.3875122070312	117.03960418701172	1284.649169921875	625.2738647460938	200.9973602294922	1144.402099609375	710.7314453125	202.8118896484375	1207.0809326171875	672.5736694335938	196.36866760253906	1133.296142578125	676.0836181640625	480.23919677734375	1158.3321533203125	674.3128051757812	447.0484313964844	1083.640625	424.7295837402344	61.66644287109375	1437.1033935546875
